<svg width="21" height="21" viewBox="0 0 21 21" fill="none" xmlns="http://www.w3.org/2000/svg">
<g clip-path="url(#clip0_1049_1119)">
<path d="M21 10.5C21 4.70101 16.299 0 10.5 0C4.70101 0 0 4.70101 0 10.5C0 16.299 4.70101 21 10.5 21C16.299 21 21 16.299 21 10.5Z" fill="#E8471C"/>
<mask id="mask0_1049_1119" style="mask-type:luminance" maskUnits="userSpaceOnUse" x="4" y="2" width="13" height="17">
<path d="M16.4409 2.625H4.54999V18.375H16.4409V2.625Z" fill="white"/>
</mask>
<g mask="url(#mask0_1049_1119)">
<path d="M6.08187 14.6562C6.30496 14.4674 6.53665 14.3006 6.77264 14.155C6.82189 14.1247 6.80303 14.0482 6.74567 14.0448C6.56707 14.0344 6.38549 14.0327 6.20134 14.0396C6.13326 14.0422 6.07587 13.9882 6.07587 13.919V13.5867C6.07587 12.2817 7.12465 11.2234 8.41799 11.2234H12.5729C13.3189 11.2234 13.9832 11.5751 14.4119 12.1231C14.9806 12.066 15.4838 11.8815 15.99 11.4891C15.6534 10.888 15.1468 10.3967 14.536 10.0812C15.1635 8.70142 16.2516 6.12806 16.2272 4.92804C16.1955 3.38445 14.9527 2.78119 14.2812 2.67272C13.6157 2.52882 12.241 2.63815 11.6586 4.0655C11.1841 5.22838 11.3083 8.24335 11.4016 9.69534H9.58969C9.68304 8.24293 9.80724 5.22838 9.33274 4.0655C8.74989 2.63772 7.37518 2.52882 6.70967 2.67272C6.03774 2.78119 4.79497 3.38445 4.7637 4.92804C4.73928 6.12806 5.8279 8.7023 6.45531 10.0821C5.32426 10.6663 4.54999 11.853 4.54999 13.2228V14.8477C4.54999 15.3053 4.63648 15.7426 4.79365 16.1441C5.16968 15.5516 5.60819 15.0555 6.08187 14.6562ZM12.6881 4.49288C12.8659 4.11561 13.1014 3.87663 13.4701 3.78978C13.7613 3.72107 14.0221 3.76645 14.0564 3.77295L14.0671 3.77639L14.0958 3.7803C14.1232 3.78548 14.387 3.83732 14.6375 4.00975C14.9502 4.22536 15.1061 4.53305 15.1146 4.95049C15.121 5.25558 15.0037 6.07924 14.1476 8.16601C13.9035 8.76149 13.6568 9.31763 13.4667 9.73422C13.3356 9.70095 13.1125 9.69534 13.1125 9.69534C13.1125 9.69534 14.366 6.19244 14.0192 5.56283C13.5917 4.78715 12.5151 5.08663 12.5151 5.08663C12.5151 5.08663 12.5631 4.75863 12.6885 4.49242L12.6881 4.49288ZM8.12078 9.69534C8.12078 9.69534 8.19444 5.95176 7.57218 5.4012C6.71958 4.69166 5.93668 5.42325 5.93668 5.42325C5.887 5.17348 5.87502 5.05421 5.87673 4.95095C5.88529 4.53351 6.04118 4.22536 6.35379 4.01018C6.60047 3.83992 6.85999 3.78719 6.89424 3.78072H6.9054L6.93323 3.77337C6.9602 3.76819 7.22486 3.72022 7.5208 3.78978C7.88951 3.87663 8.14519 4.10655 8.30279 4.49288C8.41799 4.77504 8.60341 5.58574 8.55374 7.84363C8.53789 8.55665 8.50193 9.22648 8.47193 9.69534H8.12078Z" fill="white"/>
<path d="M16.1972 11.9263C15.8212 12.5187 15.3827 13.0148 14.909 13.4141C14.6859 13.603 14.4542 13.7697 14.2182 13.9154C14.169 13.9456 14.1879 14.0226 14.2452 14.0256C14.4238 14.0359 14.6054 14.0377 14.7895 14.0308C14.8576 14.0282 14.915 14.0822 14.915 14.1513V14.4836C14.915 15.7887 13.8662 16.847 12.5729 16.847H8.41794C7.67192 16.847 7.0077 16.4952 6.57903 15.9473C6.01029 16.0043 5.50711 16.1888 5.00092 16.5812C5.60089 17.6521 6.73962 18.375 8.04582 18.375H12.9451C14.8756 18.375 16.4409 16.7955 16.4409 14.8475V13.2227C16.4409 12.765 16.3544 12.3277 16.1972 11.9263Z" fill="white"/>
<path d="M8.54771 15.1292C9.0165 15.1292 9.3965 14.6394 9.3965 14.0351C9.3965 13.4308 9.0165 12.9409 8.54771 12.9409C8.07892 12.9409 7.69891 13.4308 7.69891 14.0351C7.69891 14.6394 8.07892 15.1292 8.54771 15.1292Z" fill="white"/>
<path d="M12.4436 15.1292C12.9123 15.1292 13.2923 14.6394 13.2923 14.0351C13.2923 13.4308 12.9123 12.9409 12.4436 12.9409C11.9748 12.9409 11.5947 13.4308 11.5947 14.0351C11.5947 14.6394 11.9748 15.1292 12.4436 15.1292Z" fill="white"/>
</g>
</g>
<defs>
<clipPath id="clip0_1049_1119">
<rect width="21" height="21" fill="white"/>
</clipPath>
</defs>
</svg>
